<?xml version="1.0" encoding="utf-8"?>
<!-- Svg Vector Icons : http://www.onlinewebfonts.com/icon -->
<!DOCTYPE svg PUBLIC "-//W3C//DTD SVG 1.1//EN" "http://www.w3.org/Graphics/SVG/1.1/DTD/svg11.dtd">
<svg version="1.1" xmlns="http://www.w3.org/2000/svg" xmlns:xlink="http://www.w3.org/1999/xlink" x="0px" y="0px" viewBox="0 0 1000 1000" enable-background="new 0 0 1000 1000" xml:space="preserve">
<metadata> Svg Vector Icons : http://www.onlinewebfonts.com/icon </metadata>
<g><path d="M500,683.8c-152,0-275.6-151.2-275.6-336.9c0-88.7,27.8-172.4,78.4-235.7C355,46,425.1,10,500,10c152,0,275.6,151.2,275.6,336.9C775.6,532.6,652,683.8,500,683.8z M500,71.3c-118.3,0-214.4,123.6-214.4,275.6c0.1,152,96.2,275.6,214.4,275.6c118.2,0,214.4-123.7,214.4-275.6C714.4,194.9,618.2,71.3,500,71.3z"/><path d="M790.9,990H101.9C51.2,990,10,948.8,10,898.1c0-152,123.6-275.6,275.6-275.6c16.9,0,30.6,13.7,30.6,30.6c0,16.9-13.7,30.6-30.6,30.6c-118.2,0-214.4,96.2-214.4,214.3c0,16.9,13.8,30.7,30.6,30.7h796.3c16.9,0,30.6-13.8,30.6-30.7c0-118.2-96.2-214.3-214.4-214.3c-16.9,0-30.6-13.7-30.6-30.6c0-16.9,13.7-30.6,30.6-30.6c152,0,275.6,123.6,275.6,275.6c0,50.7-41.2,91.9-91.9,91.9H790.9z"/></g>
</svg>